<svg width="2473" height="1062" viewBox="0 0 2473 1062" fill="none" xmlns="http://www.w3.org/2000/svg">
<rect width="2473" height="1062" fill="#E5E5E5"/>
<rect width="2473" height="1062" fill="url(#paint0_linear)"/>
<rect x="112.5" y="218.5" width="235" height="75" fill="#EBEBEB" stroke="black"/>
<path d="M150.023 258.441C150.023 259.949 149.477 261.125 148.383 261.969C147.289 262.812 145.805 263.234 143.93 263.234C141.898 263.234 140.336 262.973 139.242 262.449V260.527C139.945 260.824 140.711 261.059 141.539 261.23C142.367 261.402 143.188 261.488 144 261.488C145.328 261.488 146.328 261.238 147 260.738C147.672 260.23 148.008 259.527 148.008 258.629C148.008 258.035 147.887 257.551 147.645 257.176C147.41 256.793 147.012 256.441 146.449 256.121C145.895 255.801 145.047 255.438 143.906 255.031C142.312 254.461 141.172 253.785 140.484 253.004C139.805 252.223 139.465 251.203 139.465 249.945C139.465 248.625 139.961 247.574 140.953 246.793C141.945 246.012 143.258 245.621 144.891 245.621C146.594 245.621 148.16 245.934 149.59 246.559L148.969 248.293C147.555 247.699 146.18 247.402 144.844 247.402C143.789 247.402 142.965 247.629 142.371 248.082C141.777 248.535 141.48 249.164 141.48 249.969C141.48 250.562 141.59 251.051 141.809 251.434C142.027 251.809 142.395 252.156 142.91 252.477C143.434 252.789 144.23 253.137 145.301 253.52C147.098 254.16 148.332 254.848 149.004 255.582C149.684 256.316 150.023 257.27 150.023 258.441ZM169.605 263V254.645C169.605 253.621 169.387 252.855 168.949 252.348C168.512 251.832 167.832 251.574 166.91 251.574C165.699 251.574 164.805 251.922 164.227 252.617C163.648 253.312 163.359 254.383 163.359 255.828V263H161.414V254.645C161.414 253.621 161.195 252.855 160.758 252.348C160.32 251.832 159.637 251.574 158.707 251.574C157.488 251.574 156.594 251.941 156.023 252.676C155.461 253.402 155.18 254.598 155.18 256.262V263H153.234V250.156H154.816L155.133 251.914H155.227C155.594 251.289 156.109 250.801 156.773 250.449C157.445 250.098 158.195 249.922 159.023 249.922C161.031 249.922 162.344 250.648 162.961 252.102H163.055C163.438 251.43 163.992 250.898 164.719 250.508C165.445 250.117 166.273 249.922 167.203 249.922C168.656 249.922 169.742 250.297 170.461 251.047C171.188 251.789 171.551 252.98 171.551 254.621V263H169.605ZM183.469 263L183.082 261.172H182.988C182.348 261.977 181.707 262.523 181.066 262.812C180.434 263.094 179.641 263.234 178.688 263.234C177.414 263.234 176.414 262.906 175.688 262.25C174.969 261.594 174.609 260.66 174.609 259.449C174.609 256.855 176.684 255.496 180.832 255.371L183.012 255.301V254.504C183.012 253.496 182.793 252.754 182.355 252.277C181.926 251.793 181.234 251.551 180.281 251.551C179.211 251.551 178 251.879 176.648 252.535L176.051 251.047C176.684 250.703 177.375 250.434 178.125 250.238C178.883 250.043 179.641 249.945 180.398 249.945C181.93 249.945 183.062 250.285 183.797 250.965C184.539 251.645 184.91 252.734 184.91 254.234V263H183.469ZM179.074 261.629C180.285 261.629 181.234 261.297 181.922 260.633C182.617 259.969 182.965 259.039 182.965 257.844V256.684L181.02 256.766C179.473 256.82 178.355 257.062 177.668 257.492C176.988 257.914 176.648 258.574 176.648 259.473C176.648 260.176 176.859 260.711 177.281 261.078C177.711 261.445 178.309 261.629 179.074 261.629ZM194.789 249.922C195.359 249.922 195.871 249.969 196.324 250.062L196.055 251.867C195.523 251.75 195.055 251.691 194.648 251.691C193.609 251.691 192.719 252.113 191.977 252.957C191.242 253.801 190.875 254.852 190.875 256.109V263H188.93V250.156H190.535L190.758 252.535H190.852C191.328 251.699 191.902 251.055 192.574 250.602C193.246 250.148 193.984 249.922 194.789 249.922ZM202.875 261.629C203.219 261.629 203.551 261.605 203.871 261.559C204.191 261.504 204.445 261.449 204.633 261.395V262.883C204.422 262.984 204.109 263.066 203.695 263.129C203.289 263.199 202.922 263.234 202.594 263.234C200.109 263.234 198.867 261.926 198.867 259.309V251.668H197.027V250.73L198.867 249.922L199.688 247.18H200.812V250.156H204.539V251.668H200.812V259.227C200.812 260 200.996 260.594 201.363 261.008C201.73 261.422 202.234 261.629 202.875 261.629ZM226.746 263H224.754V254.938H215.73V263H213.738V245.867H215.73V253.156H224.754V245.867H226.746V263ZM242.25 256.566C242.25 258.66 241.723 260.297 240.668 261.477C239.613 262.648 238.156 263.234 236.297 263.234C235.148 263.234 234.129 262.965 233.238 262.426C232.348 261.887 231.66 261.113 231.176 260.105C230.691 259.098 230.449 257.918 230.449 256.566C230.449 254.473 230.973 252.844 232.02 251.68C233.066 250.508 234.52 249.922 236.379 249.922C238.176 249.922 239.602 250.52 240.656 251.715C241.719 252.91 242.25 254.527 242.25 256.566ZM232.465 256.566C232.465 258.207 232.793 259.457 233.449 260.316C234.105 261.176 235.07 261.605 236.344 261.605C237.617 261.605 238.582 261.18 239.238 260.328C239.902 259.469 240.234 258.215 240.234 256.566C240.234 254.934 239.902 253.695 239.238 252.852C238.582 252 237.609 251.574 236.32 251.574C235.047 251.574 234.086 251.992 233.438 252.828C232.789 253.664 232.465 254.91 232.465 256.566ZM253.957 259.496C253.957 260.691 253.512 261.613 252.621 262.262C251.73 262.91 250.48 263.234 248.871 263.234C247.168 263.234 245.84 262.965 244.887 262.426V260.621C245.504 260.934 246.164 261.18 246.867 261.359C247.578 261.539 248.262 261.629 248.918 261.629C249.934 261.629 250.715 261.469 251.262 261.148C251.809 260.82 252.082 260.324 252.082 259.66C252.082 259.16 251.863 258.734 251.426 258.383C250.996 258.023 250.152 257.602 248.895 257.117C247.699 256.672 246.848 256.285 246.34 255.957C245.84 255.621 245.465 255.242 245.215 254.82C244.973 254.398 244.852 253.895 244.852 253.309C244.852 252.262 245.277 251.438 246.129 250.836C246.98 250.227 248.148 249.922 249.633 249.922C251.016 249.922 252.367 250.203 253.688 250.766L252.996 252.348C251.707 251.816 250.539 251.551 249.492 251.551C248.57 251.551 247.875 251.695 247.406 251.984C246.938 252.273 246.703 252.672 246.703 253.18C246.703 253.523 246.789 253.816 246.961 254.059C247.141 254.301 247.426 254.531 247.816 254.75C248.207 254.969 248.957 255.285 250.066 255.699C251.59 256.254 252.617 256.812 253.148 257.375C253.688 257.938 253.957 258.645 253.957 259.496ZM263.109 263.234C262.273 263.234 261.508 263.082 260.812 262.777C260.125 262.465 259.547 261.988 259.078 261.348H258.938C259.031 262.098 259.078 262.809 259.078 263.48V268.766H257.133V250.156H258.715L258.984 251.914H259.078C259.578 251.211 260.16 250.703 260.824 250.391C261.488 250.078 262.25 249.922 263.109 249.922C264.812 249.922 266.125 250.504 267.047 251.668C267.977 252.832 268.441 254.465 268.441 256.566C268.441 258.676 267.969 260.316 267.023 261.488C266.086 262.652 264.781 263.234 263.109 263.234ZM262.828 251.574C261.516 251.574 260.566 251.938 259.98 252.664C259.395 253.391 259.094 254.547 259.078 256.133V256.566C259.078 258.371 259.379 259.664 259.98 260.445C260.582 261.219 261.547 261.605 262.875 261.605C263.984 261.605 264.852 261.156 265.477 260.258C266.109 259.359 266.426 258.121 266.426 256.543C266.426 254.941 266.109 253.715 265.477 252.863C264.852 252.004 263.969 251.574 262.828 251.574ZM273.797 263H271.852V250.156H273.797V263ZM271.688 246.676C271.688 246.23 271.797 245.906 272.016 245.703C272.234 245.492 272.508 245.387 272.836 245.387C273.148 245.387 273.418 245.492 273.645 245.703C273.871 245.914 273.984 246.238 273.984 246.676C273.984 247.113 273.871 247.441 273.645 247.66C273.418 247.871 273.148 247.977 272.836 247.977C272.508 247.977 272.234 247.871 272.016 247.66C271.797 247.441 271.688 247.113 271.688 246.676ZM282.07 261.629C282.414 261.629 282.746 261.605 283.066 261.559C283.387 261.504 283.641 261.449 283.828 261.395V262.883C283.617 262.984 283.305 263.066 282.891 263.129C282.484 263.199 282.117 263.234 281.789 263.234C279.305 263.234 278.062 261.926 278.062 259.309V251.668H276.223V250.73L278.062 249.922L278.883 247.18H280.008V250.156H283.734V251.668H280.008V259.227C280.008 260 280.191 260.594 280.559 261.008C280.926 261.422 281.43 261.629 282.07 261.629ZM294.305 263L293.918 261.172H293.824C293.184 261.977 292.543 262.523 291.902 262.812C291.27 263.094 290.477 263.234 289.523 263.234C288.25 263.234 287.25 262.906 286.523 262.25C285.805 261.594 285.445 260.66 285.445 259.449C285.445 256.855 287.52 255.496 291.668 255.371L293.848 255.301V254.504C293.848 253.496 293.629 252.754 293.191 252.277C292.762 251.793 292.07 251.551 291.117 251.551C290.047 251.551 288.836 251.879 287.484 252.535L286.887 251.047C287.52 250.703 288.211 250.434 288.961 250.238C289.719 250.043 290.477 249.945 291.234 249.945C292.766 249.945 293.898 250.285 294.633 250.965C295.375 251.645 295.746 252.734 295.746 254.234V263H294.305ZM289.91 261.629C291.121 261.629 292.07 261.297 292.758 260.633C293.453 259.969 293.801 259.039 293.801 257.844V256.684L291.855 256.766C290.309 256.82 289.191 257.062 288.504 257.492C287.824 257.914 287.484 258.574 287.484 259.473C287.484 260.176 287.695 260.711 288.117 261.078C288.547 261.445 289.145 261.629 289.91 261.629ZM301.711 263H299.766V244.766H301.711V263Z" fill="black"/>
<rect x="1306.5" y="919.5" width="235" height="75" fill="#EBEBEB" stroke="black"/>
<path d="M1389.76 929.867H1394.6C1396.88 929.867 1398.52 930.207 1399.54 930.887C1400.55 931.566 1401.06 932.641 1401.06 934.109C1401.06 935.125 1400.77 935.965 1400.2 936.629C1399.64 937.285 1398.82 937.711 1397.73 937.906V938.023C1400.33 938.469 1401.63 939.836 1401.63 942.125C1401.63 943.656 1401.11 944.852 1400.07 945.711C1399.04 946.57 1397.6 947 1395.74 947H1389.76V929.867ZM1391.75 937.203H1395.04C1396.44 937.203 1397.45 936.984 1398.07 936.547C1398.69 936.102 1399 935.355 1399 934.309C1399 933.348 1398.65 932.656 1397.96 932.234C1397.28 931.805 1396.18 931.59 1394.68 931.59H1391.75V937.203ZM1391.75 938.891V945.301H1395.33C1396.71 945.301 1397.75 945.035 1398.45 944.504C1399.15 943.965 1399.5 943.125 1399.5 941.984C1399.5 940.922 1399.14 940.141 1398.42 939.641C1397.71 939.141 1396.62 938.891 1395.16 938.891H1391.75ZM1420.2 938.41C1420.2 941.152 1419.5 943.309 1418.11 944.879C1416.73 946.449 1414.8 947.234 1412.33 947.234C1409.81 947.234 1407.86 946.465 1406.48 944.926C1405.12 943.379 1404.43 941.199 1404.43 938.387C1404.43 935.598 1405.12 933.438 1406.5 931.906C1407.87 930.367 1409.82 929.598 1412.36 929.598C1414.82 929.598 1416.74 930.379 1418.12 931.941C1419.5 933.504 1420.2 935.66 1420.2 938.41ZM1406.54 938.41C1406.54 940.73 1407.04 942.492 1408.02 943.695C1409.01 944.891 1410.45 945.488 1412.33 945.488C1414.23 945.488 1415.66 944.891 1416.63 943.695C1417.6 942.5 1418.09 940.738 1418.09 938.41C1418.09 936.105 1417.6 934.359 1416.63 933.172C1415.67 931.977 1414.25 931.379 1412.36 931.379C1410.46 931.379 1409.01 931.98 1408.02 933.184C1407.04 934.379 1406.54 936.121 1406.54 938.41ZM1438.9 938.41C1438.9 941.152 1438.2 943.309 1436.81 944.879C1435.43 946.449 1433.5 947.234 1431.04 947.234C1428.51 947.234 1426.56 946.465 1425.19 944.926C1423.82 943.379 1423.14 941.199 1423.14 938.387C1423.14 935.598 1423.82 933.438 1425.2 931.906C1426.57 930.367 1428.53 929.598 1431.06 929.598C1433.52 929.598 1435.44 930.379 1436.82 931.941C1438.21 933.504 1438.9 935.66 1438.9 938.41ZM1425.25 938.41C1425.25 940.73 1425.74 942.492 1426.72 943.695C1427.71 944.891 1429.15 945.488 1431.04 945.488C1432.93 945.488 1434.37 944.891 1435.34 943.695C1436.3 942.5 1436.79 940.738 1436.79 938.41C1436.79 936.105 1436.3 934.359 1435.34 933.172C1434.38 931.977 1432.95 931.379 1431.06 931.379C1429.16 931.379 1427.71 931.98 1426.72 933.184C1425.74 934.379 1425.25 936.121 1425.25 938.41ZM1455.11 947H1452.76L1446.52 938.691L1444.72 940.285V947H1442.73V929.867H1444.72V938.363L1452.49 929.867H1454.85L1447.96 937.309L1455.11 947ZM1363.12 980L1360.99 974.551H1354.12L1352.02 980H1350L1356.77 962.797H1358.45L1365.19 980H1363.12ZM1360.37 972.758L1358.38 967.449C1358.12 966.777 1357.86 965.953 1357.58 964.977C1357.41 965.727 1357.16 966.551 1356.84 967.449L1354.83 972.758H1360.37ZM1378.41 967.859C1378.41 969.594 1377.81 970.93 1376.62 971.867C1375.45 972.797 1373.75 973.262 1371.55 973.262H1369.54V980H1367.54V962.867H1371.98C1376.27 962.867 1378.41 964.531 1378.41 967.859ZM1369.54 971.551H1371.33C1373.09 971.551 1374.37 971.266 1375.16 970.695C1375.95 970.125 1376.34 969.211 1376.34 967.953C1376.34 966.82 1375.97 965.977 1375.23 965.422C1374.49 964.867 1373.33 964.59 1371.76 964.59H1369.54V971.551ZM1392.87 967.859C1392.87 969.594 1392.27 970.93 1391.09 971.867C1389.91 972.797 1388.21 973.262 1386.01 973.262H1384V980H1382V962.867H1386.45C1390.73 962.867 1392.87 964.531 1392.87 967.859ZM1384 971.551H1385.79C1387.55 971.551 1388.83 971.266 1389.62 970.695C1390.41 970.125 1390.8 969.211 1390.8 967.953C1390.8 966.82 1390.43 965.977 1389.69 965.422C1388.95 964.867 1387.79 964.59 1386.22 964.59H1384V971.551ZM1411.34 971.41C1411.34 974.152 1410.64 976.309 1409.25 977.879C1407.87 979.449 1405.94 980.234 1403.47 980.234C1400.95 980.234 1399 979.465 1397.62 977.926C1396.26 976.379 1395.57 974.199 1395.57 971.387C1395.57 968.598 1396.26 966.438 1397.64 964.906C1399.01 963.367 1400.96 962.598 1403.5 962.598C1405.96 962.598 1407.88 963.379 1409.26 964.941C1410.64 966.504 1411.34 968.66 1411.34 971.41ZM1397.68 971.41C1397.68 973.73 1398.18 975.492 1399.16 976.695C1400.15 977.891 1401.59 978.488 1403.47 978.488C1405.37 978.488 1406.8 977.891 1407.77 976.695C1408.74 975.5 1409.23 973.738 1409.23 971.41C1409.23 969.105 1408.74 967.359 1407.77 966.172C1406.81 964.977 1405.39 964.379 1403.5 964.379C1401.6 964.379 1400.15 964.98 1399.16 966.184C1398.18 967.379 1397.68 969.121 1397.68 971.41ZM1415.17 980V962.867H1417.16V980H1415.17ZM1435.25 980H1432.98L1423.62 965.621H1423.52C1423.65 967.309 1423.71 968.855 1423.71 970.262V980H1421.87V962.867H1424.12L1433.46 977.188H1433.55C1433.54 976.977 1433.5 976.301 1433.45 975.16C1433.39 974.012 1433.38 973.191 1433.39 972.699V962.867H1435.25V980ZM1445.24 980H1443.25V964.637H1437.82V962.867H1450.66V964.637H1445.24V980ZM1460.84 980L1455.02 964.812H1454.93C1455.04 966.016 1455.09 967.445 1455.09 969.102V980H1453.25V962.867H1456.25L1461.68 977H1461.77L1467.25 962.867H1470.22V980H1468.23V968.961C1468.23 967.695 1468.29 966.32 1468.39 964.836H1468.3L1462.44 980H1460.84ZM1484.48 980H1474.93V962.867H1484.48V964.637H1476.93V970.156H1484.03V971.914H1476.93V978.219H1484.48V980ZM1501.68 980H1499.4L1490.04 965.621H1489.95C1490.07 967.309 1490.13 968.855 1490.13 970.262V980H1488.29V962.867H1490.54L1499.88 977.188H1499.98C1499.96 976.977 1499.93 976.301 1499.87 975.16C1499.82 974.012 1499.8 973.191 1499.81 972.699V962.867H1501.68V980ZM1511.66 980H1509.67V964.637H1504.24V962.867H1517.09V964.637H1511.66V980Z" fill="black"/>
<path d="M1541.93 418.505C1541.65 418.546 1541.47 418.8 1541.51 419.073L1542.16 423.525C1542.2 423.798 1542.45 423.987 1542.73 423.947C1543 423.907 1543.19 423.653 1543.15 423.379L1542.57 419.422L1546.52 418.84C1546.8 418.8 1546.99 418.546 1546.95 418.273C1546.91 417.999 1546.65 417.81 1546.38 417.851L1541.93 418.505ZM1854.3 650.599L1542.3 418.599L1541.7 419.401L1853.7 651.401L1854.3 650.599Z" fill="black"/>
<rect x="1854.5" y="612.5" width="235" height="75" fill="#EBEBEB" stroke="black"/>
<path d="M1933.63 657H1931.64V641.637H1926.21V639.867H1939.05V641.637H1933.63V657ZM1946 648.434L1950.57 639.867H1952.73L1947.01 650.355V657H1945V650.449L1939.29 639.867H1941.47L1946 648.434ZM1965.96 644.859C1965.96 646.594 1965.37 647.93 1964.18 648.867C1963 649.797 1961.31 650.262 1959.11 650.262H1957.09V657H1955.1V639.867H1959.54C1963.82 639.867 1965.96 641.531 1965.96 644.859ZM1957.09 648.551H1958.88C1960.65 648.551 1961.93 648.266 1962.71 647.695C1963.5 647.125 1963.9 646.211 1963.9 644.953C1963.9 643.82 1963.53 642.977 1962.79 642.422C1962.04 641.867 1960.89 641.59 1959.32 641.59H1957.09V648.551ZM1979.11 657H1969.56V639.867H1979.11V641.637H1971.55V647.156H1978.65V648.914H1971.55V655.219H1979.11V657ZM1981.55 651.457V649.676H1987.3V651.457H1981.55ZM1996.68 657H1994.78V644.789C1994.78 643.773 1994.81 642.812 1994.87 641.906C1994.71 642.07 1994.52 642.242 1994.32 642.422C1994.12 642.602 1993.19 643.363 1991.53 644.707L1990.5 643.371L1995.04 639.867H1996.68V657Z" fill="black"/>
<rect x="1452.5" y="629.5" width="235" height="75" fill="#EBEBEB" stroke="black"/>
<path d="M1509.03 667.27C1509.03 670.098 1508.26 672.262 1506.72 673.762C1505.19 675.254 1502.98 676 1500.1 676H1495.36V658.867H1500.61C1503.27 658.867 1505.34 659.605 1506.82 661.082C1508.29 662.559 1509.03 664.621 1509.03 667.27ZM1506.92 667.34C1506.92 665.105 1506.36 663.422 1505.23 662.289C1504.12 661.156 1502.45 660.59 1500.24 660.59H1497.35V674.277H1499.77C1502.15 674.277 1503.93 673.695 1505.13 672.531C1506.32 671.359 1506.92 669.629 1506.92 667.34ZM1527.73 667.41C1527.73 670.152 1527.04 672.309 1525.65 673.879C1524.27 675.449 1522.34 676.234 1519.87 676.234C1517.35 676.234 1515.4 675.465 1514.02 673.926C1512.66 672.379 1511.97 670.199 1511.97 667.387C1511.97 664.598 1512.66 662.438 1514.04 660.906C1515.41 659.367 1517.36 658.598 1519.89 658.598C1522.36 658.598 1524.28 659.379 1525.66 660.941C1527.04 662.504 1527.73 664.66 1527.73 667.41ZM1514.08 667.41C1514.08 669.73 1514.57 671.492 1515.56 672.695C1516.55 673.891 1517.99 674.488 1519.87 674.488C1521.77 674.488 1523.2 673.891 1524.17 672.695C1525.14 671.5 1525.62 669.738 1525.62 667.41C1525.62 665.105 1525.14 663.359 1524.17 662.172C1523.21 660.977 1521.79 660.379 1519.89 660.379C1518 660.379 1516.55 660.98 1515.56 662.184C1514.57 663.379 1514.08 665.121 1514.08 667.41ZM1538.9 660.402C1537.02 660.402 1535.53 661.031 1534.44 662.289C1533.35 663.539 1532.81 665.254 1532.81 667.434C1532.81 669.676 1533.33 671.41 1534.38 672.637C1535.43 673.855 1536.93 674.465 1538.88 674.465C1540.07 674.465 1541.44 674.25 1542.97 673.82V675.566C1541.78 676.012 1540.32 676.234 1538.57 676.234C1536.05 676.234 1534.1 675.469 1532.73 673.938C1531.36 672.406 1530.68 670.23 1530.68 667.41C1530.68 665.645 1531 664.098 1531.66 662.77C1532.32 661.441 1533.28 660.418 1534.52 659.699C1535.77 658.98 1537.24 658.621 1538.93 658.621C1540.72 658.621 1542.29 658.949 1543.64 659.605L1542.79 661.316C1541.5 660.707 1540.2 660.402 1538.9 660.402ZM1551.98 676H1549.99V660.637H1544.56V658.867H1557.41V660.637H1551.98V676ZM1574.87 667.41C1574.87 670.152 1574.17 672.309 1572.78 673.879C1571.4 675.449 1569.47 676.234 1567 676.234C1564.48 676.234 1562.53 675.465 1561.16 673.926C1559.79 672.379 1559.11 670.199 1559.11 667.387C1559.11 664.598 1559.79 662.438 1561.17 660.906C1562.54 659.367 1564.5 658.598 1567.03 658.598C1569.49 658.598 1571.41 659.379 1572.79 660.941C1574.18 662.504 1574.87 664.66 1574.87 667.41ZM1561.21 667.41C1561.21 669.73 1561.71 671.492 1562.69 672.695C1563.68 673.891 1565.12 674.488 1567 674.488C1568.9 674.488 1570.34 673.891 1571.3 672.695C1572.27 671.5 1572.76 669.738 1572.76 667.41C1572.76 665.105 1572.27 663.359 1571.3 662.172C1570.34 660.977 1568.92 660.379 1567.03 660.379C1565.13 660.379 1563.68 660.98 1562.69 662.184C1561.71 663.379 1561.21 665.121 1561.21 667.41ZM1580.69 668.875V676H1578.7V658.867H1583.4C1585.5 658.867 1587.05 659.27 1588.05 660.074C1589.06 660.879 1589.56 662.09 1589.56 663.707C1589.56 665.973 1588.41 667.504 1586.12 668.301L1590.77 676H1588.41L1584.27 668.875H1580.69ZM1580.69 667.164H1583.42C1584.83 667.164 1585.86 666.887 1586.52 666.332C1587.17 665.77 1587.5 664.93 1587.5 663.812C1587.5 662.68 1587.16 661.863 1586.49 661.363C1585.83 660.863 1584.76 660.613 1583.28 660.613H1580.69V667.164ZM1592.16 670.457V668.676H1597.92V670.457H1592.16ZM1611.35 676H1600.09V674.324L1604.6 669.789C1605.97 668.398 1606.88 667.406 1607.32 666.812C1607.75 666.219 1608.08 665.641 1608.3 665.078C1608.52 664.516 1608.63 663.91 1608.63 663.262C1608.63 662.348 1608.35 661.625 1607.8 661.094C1607.24 660.555 1606.47 660.285 1605.49 660.285C1604.78 660.285 1604.1 660.402 1603.46 660.637C1602.83 660.871 1602.12 661.297 1601.34 661.914L1600.31 660.59C1601.89 659.277 1603.61 658.621 1605.46 658.621C1607.07 658.621 1608.34 659.035 1609.25 659.863C1610.16 660.684 1610.62 661.789 1610.62 663.18C1610.62 664.266 1610.32 665.34 1609.71 666.402C1609.1 667.465 1607.96 668.809 1606.29 670.434L1602.54 674.102V674.195H1611.35V676Z" fill="black"/>
<rect x="1124.5" y="629.5" width="235" height="75" fill="#EBEBEB" stroke="black"/>
<path d="M1194.03 665.27C1194.03 668.098 1193.26 670.262 1191.72 671.762C1190.19 673.254 1187.98 674 1185.1 674H1180.36V656.867H1185.61C1188.27 656.867 1190.34 657.605 1191.82 659.082C1193.29 660.559 1194.03 662.621 1194.03 665.27ZM1191.92 665.34C1191.92 663.105 1191.36 661.422 1190.23 660.289C1189.12 659.156 1187.45 658.59 1185.24 658.59H1182.35V672.277H1184.77C1187.15 672.277 1188.93 671.695 1190.13 670.531C1191.32 669.359 1191.92 667.629 1191.92 665.34ZM1212.73 665.41C1212.73 668.152 1212.04 670.309 1210.65 671.879C1209.27 673.449 1207.34 674.234 1204.87 674.234C1202.35 674.234 1200.4 673.465 1199.02 671.926C1197.66 670.379 1196.97 668.199 1196.97 665.387C1196.97 662.598 1197.66 660.438 1199.04 658.906C1200.41 657.367 1202.36 656.598 1204.89 656.598C1207.36 656.598 1209.28 657.379 1210.66 658.941C1212.04 660.504 1212.73 662.66 1212.73 665.41ZM1199.08 665.41C1199.08 667.73 1199.57 669.492 1200.56 670.695C1201.55 671.891 1202.99 672.488 1204.87 672.488C1206.77 672.488 1208.2 671.891 1209.17 670.695C1210.14 669.5 1210.62 667.738 1210.62 665.41C1210.62 663.105 1210.14 661.359 1209.17 660.172C1208.21 658.977 1206.79 658.379 1204.89 658.379C1203 658.379 1201.55 658.98 1200.56 660.184C1199.57 661.379 1199.08 663.121 1199.08 665.41ZM1223.9 658.402C1222.02 658.402 1220.53 659.031 1219.44 660.289C1218.35 661.539 1217.81 663.254 1217.81 665.434C1217.81 667.676 1218.33 669.41 1219.38 670.637C1220.43 671.855 1221.93 672.465 1223.88 672.465C1225.07 672.465 1226.44 672.25 1227.97 671.82V673.566C1226.78 674.012 1225.32 674.234 1223.57 674.234C1221.05 674.234 1219.1 673.469 1217.73 671.938C1216.36 670.406 1215.68 668.23 1215.68 665.41C1215.68 663.645 1216 662.098 1216.66 660.77C1217.32 659.441 1218.28 658.418 1219.52 657.699C1220.77 656.98 1222.24 656.621 1223.93 656.621C1225.72 656.621 1227.29 656.949 1228.64 657.605L1227.79 659.316C1226.5 658.707 1225.2 658.402 1223.9 658.402ZM1236.98 674H1234.99V658.637H1229.56V656.867H1242.41V658.637H1236.98V674ZM1259.87 665.41C1259.87 668.152 1259.17 670.309 1257.78 671.879C1256.4 673.449 1254.47 674.234 1252 674.234C1249.48 674.234 1247.53 673.465 1246.16 671.926C1244.79 670.379 1244.11 668.199 1244.11 665.387C1244.11 662.598 1244.79 660.438 1246.17 658.906C1247.54 657.367 1249.5 656.598 1252.03 656.598C1254.49 656.598 1256.41 657.379 1257.79 658.941C1259.18 660.504 1259.87 662.66 1259.87 665.41ZM1246.21 665.41C1246.21 667.73 1246.71 669.492 1247.69 670.695C1248.68 671.891 1250.12 672.488 1252 672.488C1253.9 672.488 1255.34 671.891 1256.3 670.695C1257.27 669.5 1257.76 667.738 1257.76 665.41C1257.76 663.105 1257.27 661.359 1256.3 660.172C1255.34 658.977 1253.92 658.379 1252.03 658.379C1250.13 658.379 1248.68 658.98 1247.69 660.184C1246.71 661.379 1246.21 663.121 1246.21 665.41ZM1265.69 666.875V674H1263.7V656.867H1268.4C1270.5 656.867 1272.05 657.27 1273.05 658.074C1274.06 658.879 1274.56 660.09 1274.56 661.707C1274.56 663.973 1273.41 665.504 1271.12 666.301L1275.77 674H1273.41L1269.27 666.875H1265.69ZM1265.69 665.164H1268.42C1269.83 665.164 1270.86 664.887 1271.52 664.332C1272.17 663.77 1272.5 662.93 1272.5 661.812C1272.5 660.68 1272.16 659.863 1271.49 659.363C1270.83 658.863 1269.76 658.613 1268.28 658.613H1265.69V665.164ZM1277.16 668.457V666.676H1282.92V668.457H1277.16ZM1292.29 674H1290.39V661.789C1290.39 660.773 1290.43 659.812 1290.49 658.906C1290.32 659.07 1290.14 659.242 1289.94 659.422C1289.73 659.602 1288.8 660.363 1287.15 661.707L1286.12 660.371L1290.65 656.867H1292.29V674Z" fill="black"/>
<rect x="1972.5" y="377.5" width="235" height="75" fill="#EBEBEB" stroke="black"/>
<path d="M2038.02 420.441C2038.02 421.949 2037.48 423.125 2036.38 423.969C2035.29 424.812 2033.8 425.234 2031.93 425.234C2029.9 425.234 2028.34 424.973 2027.24 424.449V422.527C2027.95 422.824 2028.71 423.059 2029.54 423.23C2030.37 423.402 2031.19 423.488 2032 423.488C2033.33 423.488 2034.33 423.238 2035 422.738C2035.67 422.23 2036.01 421.527 2036.01 420.629C2036.01 420.035 2035.89 419.551 2035.64 419.176C2035.41 418.793 2035.01 418.441 2034.45 418.121C2033.89 417.801 2033.05 417.438 2031.91 417.031C2030.31 416.461 2029.17 415.785 2028.48 415.004C2027.8 414.223 2027.46 413.203 2027.46 411.945C2027.46 410.625 2027.96 409.574 2028.95 408.793C2029.95 408.012 2031.26 407.621 2032.89 407.621C2034.59 407.621 2036.16 407.934 2037.59 408.559L2036.97 410.293C2035.55 409.699 2034.18 409.402 2032.84 409.402C2031.79 409.402 2030.96 409.629 2030.37 410.082C2029.78 410.535 2029.48 411.164 2029.48 411.969C2029.48 412.562 2029.59 413.051 2029.81 413.434C2030.03 413.809 2030.39 414.156 2030.91 414.477C2031.43 414.789 2032.23 415.137 2033.3 415.52C2035.1 416.16 2036.33 416.848 2037 417.582C2037.68 418.316 2038.02 419.27 2038.02 420.441ZM2052.39 412.859C2052.39 414.594 2051.8 415.93 2050.61 416.867C2049.43 417.797 2047.74 418.262 2045.54 418.262H2043.52V425H2041.53V407.867H2045.97C2050.25 407.867 2052.39 409.531 2052.39 412.859ZM2043.52 416.551H2045.31C2047.08 416.551 2048.36 416.266 2049.14 415.695C2049.93 415.125 2050.33 414.211 2050.33 412.953C2050.33 411.82 2049.96 410.977 2049.21 410.422C2048.47 409.867 2047.32 409.59 2045.75 409.59H2043.52V416.551ZM2065.54 425H2055.99V407.867H2065.54V409.637H2057.98V415.156H2065.08V416.914H2057.98V423.219H2065.54V425ZM2076.68 409.402C2074.8 409.402 2073.31 410.031 2072.22 411.289C2071.13 412.539 2070.59 414.254 2070.59 416.434C2070.59 418.676 2071.11 420.41 2072.16 421.637C2073.21 422.855 2074.71 423.465 2076.66 423.465C2077.86 423.465 2079.22 423.25 2080.75 422.82V424.566C2079.56 425.012 2078.1 425.234 2076.36 425.234C2073.83 425.234 2071.88 424.469 2070.51 422.938C2069.14 421.406 2068.46 419.23 2068.46 416.41C2068.46 414.645 2068.79 413.098 2069.44 411.77C2070.11 410.441 2071.06 409.418 2072.3 408.699C2073.55 407.98 2075.02 407.621 2076.71 407.621C2078.5 407.621 2080.07 407.949 2081.42 408.605L2080.57 410.316C2079.28 409.707 2077.98 409.402 2076.68 409.402ZM2084.49 425V407.867H2086.48V425H2084.49ZM2101.96 425L2099.83 419.551H2092.96L2090.85 425H2088.84L2095.61 407.797H2097.29L2104.02 425H2101.96ZM2099.21 417.758L2097.21 412.449C2096.96 411.777 2096.69 410.953 2096.42 409.977C2096.25 410.727 2096 411.551 2095.68 412.449L2093.66 417.758H2099.21ZM2106.38 425V407.867H2108.37V423.195H2115.93V425H2106.38ZM2118.85 425V407.867H2120.84V425H2118.85ZM2130.82 425H2128.83V409.637H2123.41V407.867H2136.25V409.637H2130.82V425ZM2143.2 416.434L2147.77 407.867H2149.93L2144.21 418.355V425H2142.19V418.449L2136.48 407.867H2138.66L2143.2 416.434Z" fill="black"/>
<rect x="1300.5" y="380.5" width="235" height="75" fill="#EBEBEB" stroke="black"/>
<path d="M1375.03 416.27C1375.03 419.098 1374.26 421.262 1372.72 422.762C1371.19 424.254 1368.98 425 1366.1 425H1361.36V407.867H1366.61C1369.27 407.867 1371.34 408.605 1372.82 410.082C1374.29 411.559 1375.03 413.621 1375.03 416.27ZM1372.92 416.34C1372.92 414.105 1372.36 412.422 1371.23 411.289C1370.12 410.156 1368.45 409.59 1366.24 409.59H1363.35V423.277H1365.77C1368.15 423.277 1369.93 422.695 1371.13 421.531C1372.32 420.359 1372.92 418.629 1372.92 416.34ZM1393.73 416.41C1393.73 419.152 1393.04 421.309 1391.65 422.879C1390.27 424.449 1388.34 425.234 1385.87 425.234C1383.35 425.234 1381.4 424.465 1380.02 422.926C1378.66 421.379 1377.97 419.199 1377.97 416.387C1377.97 413.598 1378.66 411.438 1380.04 409.906C1381.41 408.367 1383.36 407.598 1385.89 407.598C1388.36 407.598 1390.28 408.379 1391.66 409.941C1393.04 411.504 1393.73 413.66 1393.73 416.41ZM1380.08 416.41C1380.08 418.73 1380.57 420.492 1381.56 421.695C1382.55 422.891 1383.99 423.488 1385.87 423.488C1387.77 423.488 1389.2 422.891 1390.17 421.695C1391.14 420.5 1391.62 418.738 1391.62 416.41C1391.62 414.105 1391.14 412.359 1390.17 411.172C1389.21 409.977 1387.79 409.379 1385.89 409.379C1384 409.379 1382.55 409.98 1381.56 411.184C1380.57 412.379 1380.08 414.121 1380.08 416.41ZM1404.9 409.402C1403.02 409.402 1401.53 410.031 1400.44 411.289C1399.35 412.539 1398.81 414.254 1398.81 416.434C1398.81 418.676 1399.33 420.41 1400.38 421.637C1401.43 422.855 1402.93 423.465 1404.88 423.465C1406.07 423.465 1407.44 423.25 1408.97 422.82V424.566C1407.78 425.012 1406.32 425.234 1404.57 425.234C1402.05 425.234 1400.1 424.469 1398.73 422.938C1397.36 421.406 1396.68 419.23 1396.68 416.41C1396.68 414.645 1397 413.098 1397.66 411.77C1398.32 410.441 1399.28 409.418 1400.52 408.699C1401.77 407.98 1403.24 407.621 1404.93 407.621C1406.72 407.621 1408.29 407.949 1409.64 408.605L1408.79 410.316C1407.5 409.707 1406.2 409.402 1404.9 409.402ZM1417.98 425H1415.99V409.637H1410.56V407.867H1423.41V409.637H1417.98V425ZM1440.87 416.41C1440.87 419.152 1440.17 421.309 1438.78 422.879C1437.4 424.449 1435.47 425.234 1433 425.234C1430.48 425.234 1428.53 424.465 1427.16 422.926C1425.79 421.379 1425.11 419.199 1425.11 416.387C1425.11 413.598 1425.79 411.438 1427.17 409.906C1428.54 408.367 1430.5 407.598 1433.03 407.598C1435.49 407.598 1437.41 408.379 1438.79 409.941C1440.18 411.504 1440.87 413.66 1440.87 416.41ZM1427.21 416.41C1427.21 418.73 1427.71 420.492 1428.69 421.695C1429.68 422.891 1431.12 423.488 1433 423.488C1434.9 423.488 1436.34 422.891 1437.3 421.695C1438.27 420.5 1438.76 418.738 1438.76 416.41C1438.76 414.105 1438.27 412.359 1437.3 411.172C1436.34 409.977 1434.92 409.379 1433.03 409.379C1431.13 409.379 1429.68 409.98 1428.69 411.184C1427.71 412.379 1427.21 414.121 1427.21 416.41ZM1446.69 417.875V425H1444.7V407.867H1449.4C1451.5 407.867 1453.05 408.27 1454.05 409.074C1455.06 409.879 1455.56 411.09 1455.56 412.707C1455.56 414.973 1454.41 416.504 1452.12 417.301L1456.77 425H1454.41L1450.27 417.875H1446.69ZM1446.69 416.164H1449.42C1450.83 416.164 1451.86 415.887 1452.52 415.332C1453.17 414.77 1453.5 413.93 1453.5 412.812C1453.5 411.68 1453.16 410.863 1452.49 410.363C1451.83 409.863 1450.76 409.613 1449.28 409.613H1446.69V416.164ZM1469.2 420.441C1469.2 421.949 1468.66 423.125 1467.56 423.969C1466.47 424.812 1464.98 425.234 1463.11 425.234C1461.08 425.234 1459.52 424.973 1458.42 424.449V422.527C1459.12 422.824 1459.89 423.059 1460.72 423.23C1461.55 423.402 1462.37 423.488 1463.18 423.488C1464.51 423.488 1465.51 423.238 1466.18 422.738C1466.85 422.23 1467.19 421.527 1467.19 420.629C1467.19 420.035 1467.07 419.551 1466.82 419.176C1466.59 418.793 1466.19 418.441 1465.63 418.121C1465.07 417.801 1464.23 417.438 1463.09 417.031C1461.49 416.461 1460.35 415.785 1459.66 415.004C1458.98 414.223 1458.64 413.203 1458.64 411.945C1458.64 410.625 1459.14 409.574 1460.13 408.793C1461.12 408.012 1462.44 407.621 1464.07 407.621C1465.77 407.621 1467.34 407.934 1468.77 408.559L1468.15 410.293C1466.73 409.699 1465.36 409.402 1464.02 409.402C1462.97 409.402 1462.14 409.629 1461.55 410.082C1460.96 410.535 1460.66 411.164 1460.66 411.969C1460.66 412.562 1460.77 413.051 1460.99 413.434C1461.21 413.809 1461.57 414.156 1462.09 414.477C1462.61 414.789 1463.41 415.137 1464.48 415.52C1466.28 416.16 1467.51 416.848 1468.18 417.582C1468.86 418.316 1469.2 419.27 1469.2 420.441Z" fill="black"/>
<rect x="767.5" y="318.5" width="235" height="75" fill="#EBEBEB" stroke="black"/>
<path d="M804.227 354.41C804.227 357.152 803.531 359.309 802.141 360.879C800.758 362.449 798.832 363.234 796.363 363.234C793.84 363.234 791.891 362.465 790.516 360.926C789.148 359.379 788.465 357.199 788.465 354.387C788.465 351.598 789.152 349.438 790.527 347.906C791.902 346.367 793.855 345.598 796.387 345.598C798.848 345.598 800.77 346.379 802.152 347.941C803.535 349.504 804.227 351.66 804.227 354.41ZM790.574 354.41C790.574 356.73 791.066 358.492 792.051 359.695C793.043 360.891 794.48 361.488 796.363 361.488C798.262 361.488 799.695 360.891 800.664 359.695C801.633 358.5 802.117 356.738 802.117 354.41C802.117 352.105 801.633 350.359 800.664 349.172C799.703 347.977 798.277 347.379 796.387 347.379C794.488 347.379 793.043 347.98 792.051 349.184C791.066 350.379 790.574 352.121 790.574 354.41ZM813.332 363H811.34V347.637H805.914V345.867H818.758V347.637H813.332V363ZM834.355 363H832.363V354.938H823.34V363H821.348V345.867H823.34V353.156H832.363V345.867H834.355V363ZM848.617 363H839.066V345.867H848.617V347.637H841.059V353.156H848.16V354.914H841.059V361.219H848.617V363ZM854.418 355.875V363H852.426V345.867H857.125C859.227 345.867 860.777 346.27 861.777 347.074C862.785 347.879 863.289 349.09 863.289 350.707C863.289 352.973 862.141 354.504 859.844 355.301L864.496 363H862.141L857.992 355.875H854.418ZM854.418 354.164H857.148C858.555 354.164 859.586 353.887 860.242 353.332C860.898 352.77 861.227 351.93 861.227 350.812C861.227 349.68 860.891 348.863 860.219 348.363C859.555 347.863 858.484 347.613 857.008 347.613H854.418V354.164ZM883.164 358.441C883.164 359.949 882.617 361.125 881.523 361.969C880.43 362.812 878.945 363.234 877.07 363.234C875.039 363.234 873.477 362.973 872.383 362.449V360.527C873.086 360.824 873.852 361.059 874.68 361.23C875.508 361.402 876.328 361.488 877.141 361.488C878.469 361.488 879.469 361.238 880.141 360.738C880.812 360.23 881.148 359.527 881.148 358.629C881.148 358.035 881.027 357.551 880.785 357.176C880.551 356.793 880.152 356.441 879.59 356.121C879.035 355.801 878.188 355.438 877.047 355.031C875.453 354.461 874.312 353.785 873.625 353.004C872.945 352.223 872.605 351.203 872.605 349.945C872.605 348.625 873.102 347.574 874.094 346.793C875.086 346.012 876.398 345.621 878.031 345.621C879.734 345.621 881.301 345.934 882.73 346.559L882.109 348.293C880.695 347.699 879.32 347.402 877.984 347.402C876.93 347.402 876.105 347.629 875.512 348.082C874.918 348.535 874.621 349.164 874.621 349.969C874.621 350.562 874.73 351.051 874.949 351.434C875.168 351.809 875.535 352.156 876.051 352.477C876.574 352.789 877.371 353.137 878.441 353.52C880.238 354.16 881.473 354.848 882.145 355.582C882.824 356.316 883.164 357.27 883.164 358.441ZM896.219 363H886.668V345.867H896.219V347.637H888.66V353.156H895.762V354.914H888.66V361.219H896.219V363ZM902.02 355.875V363H900.027V345.867H904.727C906.828 345.867 908.379 346.27 909.379 347.074C910.387 347.879 910.891 349.09 910.891 350.707C910.891 352.973 909.742 354.504 907.445 355.301L912.098 363H909.742L905.594 355.875H902.02ZM902.02 354.164H904.75C906.156 354.164 907.188 353.887 907.844 353.332C908.5 352.77 908.828 351.93 908.828 350.812C908.828 349.68 908.492 348.863 907.82 348.363C907.156 347.863 906.086 347.613 904.609 347.613H902.02V354.164ZM924.648 345.867H926.793L920.617 363H918.648L912.508 345.867H914.617L918.555 356.953C919.008 358.227 919.367 359.465 919.633 360.668C919.914 359.402 920.281 358.141 920.734 356.883L924.648 345.867ZM929.16 363V345.867H931.152V363H929.16ZM945.648 345.867H947.793L941.617 363H939.648L933.508 345.867H935.617L939.555 356.953C940.008 358.227 940.367 359.465 940.633 360.668C940.914 359.402 941.281 358.141 941.734 356.883L945.648 345.867ZM959.711 363H950.16V345.867H959.711V347.637H952.152V353.156H959.254V354.914H952.152V361.219H959.711V363ZM973.188 358.441C973.188 359.949 972.641 361.125 971.547 361.969C970.453 362.812 968.969 363.234 967.094 363.234C965.062 363.234 963.5 362.973 962.406 362.449V360.527C963.109 360.824 963.875 361.059 964.703 361.23C965.531 361.402 966.352 361.488 967.164 361.488C968.492 361.488 969.492 361.238 970.164 360.738C970.836 360.23 971.172 359.527 971.172 358.629C971.172 358.035 971.051 357.551 970.809 357.176C970.574 356.793 970.176 356.441 969.613 356.121C969.059 355.801 968.211 355.438 967.07 355.031C965.477 354.461 964.336 353.785 963.648 353.004C962.969 352.223 962.629 351.203 962.629 349.945C962.629 348.625 963.125 347.574 964.117 346.793C965.109 346.012 966.422 345.621 968.055 345.621C969.758 345.621 971.324 345.934 972.754 346.559L972.133 348.293C970.719 347.699 969.344 347.402 968.008 347.402C966.953 347.402 966.129 347.629 965.535 348.082C964.941 348.535 964.645 349.164 964.645 349.969C964.645 350.562 964.754 351.051 964.973 351.434C965.191 351.809 965.559 352.156 966.074 352.477C966.598 352.789 967.395 353.137 968.465 353.52C970.262 354.16 971.496 354.848 972.168 355.582C972.848 356.316 973.188 357.27 973.188 358.441Z" fill="black"/>
<rect x="741.5" y="629.5" width="235" height="75" fill="#EBEBEB" stroke="black"/>
<path d="M787.355 664V646.867H789.348V664H787.355ZM801.641 664L795.828 648.812H795.734C795.844 650.016 795.898 651.445 795.898 653.102V664H794.059V646.867H797.059L802.484 661H802.578L808.051 646.867H811.027V664H809.035V652.961C809.035 651.695 809.09 650.32 809.199 648.836H809.105L803.246 664H801.641ZM823.32 664L817.508 648.812H817.414C817.523 650.016 817.578 651.445 817.578 653.102V664H815.738V646.867H818.738L824.164 661H824.258L829.73 646.867H832.707V664H830.715V652.961C830.715 651.695 830.77 650.32 830.879 648.836H830.785L824.926 664H823.32ZM846.969 664H837.418V646.867H846.969V648.637H839.41V654.156H846.512V655.914H839.41V662.219H846.969V664ZM864.453 655.27C864.453 658.098 863.684 660.262 862.145 661.762C860.613 663.254 858.406 664 855.523 664H850.777V646.867H856.027C858.691 646.867 860.762 647.605 862.238 649.082C863.715 650.559 864.453 652.621 864.453 655.27ZM862.344 655.34C862.344 653.105 861.781 651.422 860.656 650.289C859.539 649.156 857.875 648.59 855.664 648.59H852.77V662.277H855.195C857.57 662.277 859.355 661.695 860.551 660.531C861.746 659.359 862.344 657.629 862.344 655.34ZM868.285 664V646.867H870.277V664H868.285ZM885.758 664L883.625 658.551H876.758L874.648 664H872.633L879.406 646.797H881.082L887.82 664H885.758ZM883.004 656.758L881.012 651.449C880.754 650.777 880.488 649.953 880.215 648.977C880.043 649.727 879.797 650.551 879.477 651.449L877.461 656.758H883.004ZM895.449 664H893.457V648.637H888.031V646.867H900.875V648.637H895.449V664ZM913.016 664H903.465V646.867H913.016V648.637H905.457V654.156H912.559V655.914H905.457V662.219H913.016V664ZM804.359 697L802.227 691.551H795.359L793.25 697H791.234L798.008 679.797H799.684L806.422 697H804.359ZM801.605 689.758L799.613 684.449C799.355 683.777 799.09 682.953 798.816 681.977C798.645 682.727 798.398 683.551 798.078 684.449L796.062 689.758H801.605ZM818.445 692.441C818.445 693.949 817.898 695.125 816.805 695.969C815.711 696.812 814.227 697.234 812.352 697.234C810.32 697.234 808.758 696.973 807.664 696.449V694.527C808.367 694.824 809.133 695.059 809.961 695.23C810.789 695.402 811.609 695.488 812.422 695.488C813.75 695.488 814.75 695.238 815.422 694.738C816.094 694.23 816.43 693.527 816.43 692.629C816.43 692.035 816.309 691.551 816.066 691.176C815.832 690.793 815.434 690.441 814.871 690.121C814.316 689.801 813.469 689.438 812.328 689.031C810.734 688.461 809.594 687.785 808.906 687.004C808.227 686.223 807.887 685.203 807.887 683.945C807.887 682.625 808.383 681.574 809.375 680.793C810.367 680.012 811.68 679.621 813.312 679.621C815.016 679.621 816.582 679.934 818.012 680.559L817.391 682.293C815.977 681.699 814.602 681.402 813.266 681.402C812.211 681.402 811.387 681.629 810.793 682.082C810.199 682.535 809.902 683.164 809.902 683.969C809.902 684.562 810.012 685.051 810.23 685.434C810.449 685.809 810.816 686.156 811.332 686.477C811.855 686.789 812.652 687.137 813.723 687.52C815.52 688.16 816.754 688.848 817.426 689.582C818.105 690.316 818.445 691.27 818.445 692.441ZM831.617 692.441C831.617 693.949 831.07 695.125 829.977 695.969C828.883 696.812 827.398 697.234 825.523 697.234C823.492 697.234 821.93 696.973 820.836 696.449V694.527C821.539 694.824 822.305 695.059 823.133 695.23C823.961 695.402 824.781 695.488 825.594 695.488C826.922 695.488 827.922 695.238 828.594 694.738C829.266 694.23 829.602 693.527 829.602 692.629C829.602 692.035 829.48 691.551 829.238 691.176C829.004 690.793 828.605 690.441 828.043 690.121C827.488 689.801 826.641 689.438 825.5 689.031C823.906 688.461 822.766 687.785 822.078 687.004C821.398 686.223 821.059 685.203 821.059 683.945C821.059 682.625 821.555 681.574 822.547 680.793C823.539 680.012 824.852 679.621 826.484 679.621C828.188 679.621 829.754 679.934 831.184 680.559L830.562 682.293C829.148 681.699 827.773 681.402 826.438 681.402C825.383 681.402 824.559 681.629 823.965 682.082C823.371 682.535 823.074 683.164 823.074 683.969C823.074 684.562 823.184 685.051 823.402 685.434C823.621 685.809 823.988 686.156 824.504 686.477C825.027 686.789 825.824 687.137 826.895 687.52C828.691 688.16 829.926 688.848 830.598 689.582C831.277 690.316 831.617 691.27 831.617 692.441ZM835.121 697V679.867H837.113V697H835.121ZM851.492 692.441C851.492 693.949 850.945 695.125 849.852 695.969C848.758 696.812 847.273 697.234 845.398 697.234C843.367 697.234 841.805 696.973 840.711 696.449V694.527C841.414 694.824 842.18 695.059 843.008 695.23C843.836 695.402 844.656 695.488 845.469 695.488C846.797 695.488 847.797 695.238 848.469 694.738C849.141 694.23 849.477 693.527 849.477 692.629C849.477 692.035 849.355 691.551 849.113 691.176C848.879 690.793 848.48 690.441 847.918 690.121C847.363 689.801 846.516 689.438 845.375 689.031C843.781 688.461 842.641 687.785 841.953 687.004C841.273 686.223 840.934 685.203 840.934 683.945C840.934 682.625 841.43 681.574 842.422 680.793C843.414 680.012 844.727 679.621 846.359 679.621C848.062 679.621 849.629 679.934 851.059 680.559L850.438 682.293C849.023 681.699 847.648 681.402 846.312 681.402C845.258 681.402 844.434 681.629 843.84 682.082C843.246 682.535 842.949 683.164 842.949 683.969C842.949 684.562 843.059 685.051 843.277 685.434C843.496 685.809 843.863 686.156 844.379 686.477C844.902 686.789 845.699 687.137 846.77 687.52C848.566 688.16 849.801 688.848 850.473 689.582C851.152 690.316 851.492 691.27 851.492 692.441ZM860.27 697H858.277V681.637H852.852V679.867H865.695V681.637H860.27V697ZM879.055 697L876.922 691.551H870.055L867.945 697H865.93L872.703 679.797H874.379L881.117 697H879.055ZM876.301 689.758L874.309 684.449C874.051 683.777 873.785 682.953 873.512 681.977C873.34 682.727 873.094 683.551 872.773 684.449L870.758 689.758H876.301ZM896.855 697H894.582L885.219 682.621H885.125C885.25 684.309 885.312 685.855 885.312 687.262V697H883.473V679.867H885.723L895.062 694.188H895.156C895.141 693.977 895.105 693.301 895.051 692.16C894.996 691.012 894.977 690.191 894.992 689.699V679.867H896.855V697ZM908.902 681.402C907.02 681.402 905.531 682.031 904.438 683.289C903.352 684.539 902.809 686.254 902.809 688.434C902.809 690.676 903.332 692.41 904.379 693.637C905.434 694.855 906.934 695.465 908.879 695.465C910.074 695.465 911.438 695.25 912.969 694.82V696.566C911.781 697.012 910.316 697.234 908.574 697.234C906.051 697.234 904.102 696.469 902.727 694.938C901.359 693.406 900.676 691.23 900.676 688.41C900.676 686.645 901.004 685.098 901.66 683.77C902.324 682.441 903.277 681.418 904.52 680.699C905.77 679.98 907.238 679.621 908.926 679.621C910.723 679.621 912.293 679.949 913.637 680.605L912.793 682.316C911.496 681.707 910.199 681.402 908.902 681.402ZM926.258 697H916.707V679.867H926.258V681.637H918.699V687.156H925.801V688.914H918.699V695.219H926.258V697Z" fill="black"/>
<rect x="419.5" y="630.5" width="235" height="75" fill="#EBEBEB" stroke="black"/>
<path d="M488.355 675V657.867H490.348V673.195H497.906V675H488.355ZM511.594 675L509.461 669.551H502.594L500.484 675H498.469L505.242 657.797H506.918L513.656 675H511.594ZM508.84 667.758L506.848 662.449C506.59 661.777 506.324 660.953 506.051 659.977C505.879 660.727 505.633 661.551 505.312 662.449L503.297 667.758H508.84ZM516.012 657.867H520.852C523.125 657.867 524.77 658.207 525.785 658.887C526.801 659.566 527.309 660.641 527.309 662.109C527.309 663.125 527.023 663.965 526.453 664.629C525.891 665.285 525.066 665.711 523.98 665.906V666.023C526.582 666.469 527.883 667.836 527.883 670.125C527.883 671.656 527.363 672.852 526.324 673.711C525.293 674.57 523.848 675 521.988 675H516.012V657.867ZM518.004 665.203H521.285C522.691 665.203 523.703 664.984 524.32 664.547C524.938 664.102 525.246 663.355 525.246 662.309C525.246 661.348 524.902 660.656 524.215 660.234C523.527 659.805 522.434 659.59 520.934 659.59H518.004V665.203ZM518.004 666.891V673.301H521.578C522.961 673.301 524 673.035 524.695 672.504C525.398 671.965 525.75 671.125 525.75 669.984C525.75 668.922 525.391 668.141 524.672 667.641C523.961 667.141 522.875 666.891 521.414 666.891H518.004ZM546.445 666.41C546.445 669.152 545.75 671.309 544.359 672.879C542.977 674.449 541.051 675.234 538.582 675.234C536.059 675.234 534.109 674.465 532.734 672.926C531.367 671.379 530.684 669.199 530.684 666.387C530.684 663.598 531.371 661.438 532.746 659.906C534.121 658.367 536.074 657.598 538.605 657.598C541.066 657.598 542.988 658.379 544.371 659.941C545.754 661.504 546.445 663.66 546.445 666.41ZM532.793 666.41C532.793 668.73 533.285 670.492 534.27 671.695C535.262 672.891 536.699 673.488 538.582 673.488C540.48 673.488 541.914 672.891 542.883 671.695C543.852 670.5 544.336 668.738 544.336 666.41C544.336 664.105 543.852 662.359 542.883 661.172C541.922 659.977 540.496 659.379 538.605 659.379C536.707 659.379 535.262 659.98 534.27 661.184C533.285 662.379 532.793 664.121 532.793 666.41ZM563.215 657.867V668.953C563.215 670.906 562.625 672.441 561.445 673.559C560.266 674.676 558.645 675.234 556.582 675.234C554.52 675.234 552.922 674.672 551.789 673.547C550.664 672.422 550.102 670.875 550.102 668.906V657.867H552.094V669.047C552.094 670.477 552.484 671.574 553.266 672.34C554.047 673.105 555.195 673.488 556.711 673.488C558.156 673.488 559.27 673.105 560.051 672.34C560.832 671.566 561.223 670.461 561.223 669.023V657.867H563.215ZM569.754 667.875V675H567.762V657.867H572.461C574.562 657.867 576.113 658.27 577.113 659.074C578.121 659.879 578.625 661.09 578.625 662.707C578.625 664.973 577.477 666.504 575.18 667.301L579.832 675H577.477L573.328 667.875H569.754ZM569.754 666.164H572.484C573.891 666.164 574.922 665.887 575.578 665.332C576.234 664.77 576.562 663.93 576.562 662.812C576.562 661.68 576.227 660.863 575.555 660.363C574.891 659.863 573.82 659.613 572.344 659.613H569.754V666.164Z" fill="black"/>
<rect x="112.5" y="629.5" width="235" height="75" fill="#EBEBEB" stroke="black"/>
<path d="M182.125 674L179.992 668.551H173.125L171.016 674H169L175.773 656.797H177.449L184.188 674H182.125ZM179.371 666.758L177.379 661.449C177.121 660.777 176.855 659.953 176.582 658.977C176.41 659.727 176.164 660.551 175.844 661.449L173.828 666.758H179.371ZM193.879 658.402C191.996 658.402 190.508 659.031 189.414 660.289C188.328 661.539 187.785 663.254 187.785 665.434C187.785 667.676 188.309 669.41 189.355 670.637C190.41 671.855 191.91 672.465 193.855 672.465C195.051 672.465 196.414 672.25 197.945 671.82V673.566C196.758 674.012 195.293 674.234 193.551 674.234C191.027 674.234 189.078 673.469 187.703 671.938C186.336 670.406 185.652 668.23 185.652 665.41C185.652 663.645 185.98 662.098 186.637 660.77C187.301 659.441 188.254 658.418 189.496 657.699C190.746 656.98 192.215 656.621 193.902 656.621C195.699 656.621 197.27 656.949 198.613 657.605L197.77 659.316C196.473 658.707 195.176 658.402 193.879 658.402ZM209.02 658.402C207.137 658.402 205.648 659.031 204.555 660.289C203.469 661.539 202.926 663.254 202.926 665.434C202.926 667.676 203.449 669.41 204.496 670.637C205.551 671.855 207.051 672.465 208.996 672.465C210.191 672.465 211.555 672.25 213.086 671.82V673.566C211.898 674.012 210.434 674.234 208.691 674.234C206.168 674.234 204.219 673.469 202.844 671.938C201.477 670.406 200.793 668.23 200.793 665.41C200.793 663.645 201.121 662.098 201.777 660.77C202.441 659.441 203.395 658.418 204.637 657.699C205.887 656.98 207.355 656.621 209.043 656.621C210.84 656.621 212.41 656.949 213.754 657.605L212.91 659.316C211.613 658.707 210.316 658.402 209.02 658.402ZM216.824 674V656.867H218.816V674H216.824ZM237.203 665.27C237.203 668.098 236.434 670.262 234.895 671.762C233.363 673.254 231.156 674 228.273 674H223.527V656.867H228.777C231.441 656.867 233.512 657.605 234.988 659.082C236.465 660.559 237.203 662.621 237.203 665.27ZM235.094 665.34C235.094 663.105 234.531 661.422 233.406 660.289C232.289 659.156 230.625 658.59 228.414 658.59H225.52V672.277H227.945C230.32 672.277 232.105 671.695 233.301 670.531C234.496 669.359 235.094 667.629 235.094 665.34ZM250.586 674H241.035V656.867H250.586V658.637H243.027V664.156H250.129V665.914H243.027V672.219H250.586V674ZM267.777 674H265.504L256.141 659.621H256.047C256.172 661.309 256.234 662.855 256.234 664.262V674H254.395V656.867H256.645L265.984 671.188H266.078C266.062 670.977 266.027 670.301 265.973 669.16C265.918 668.012 265.898 667.191 265.914 666.699V656.867H267.777V674ZM277.762 674H275.77V658.637H270.344V656.867H283.188V658.637H277.762V674Z" fill="black"/>
<rect x="1603.5" y="201.5" width="235" height="75" fill="#EBEBEB" stroke="black"/>
<path d="M1685.02 241.441C1685.02 242.949 1684.48 244.125 1683.38 244.969C1682.29 245.812 1680.8 246.234 1678.93 246.234C1676.9 246.234 1675.34 245.973 1674.24 245.449V243.527C1674.95 243.824 1675.71 244.059 1676.54 244.23C1677.37 244.402 1678.19 244.488 1679 244.488C1680.33 244.488 1681.33 244.238 1682 243.738C1682.67 243.23 1683.01 242.527 1683.01 241.629C1683.01 241.035 1682.89 240.551 1682.64 240.176C1682.41 239.793 1682.01 239.441 1681.45 239.121C1680.89 238.801 1680.05 238.438 1678.91 238.031C1677.31 237.461 1676.17 236.785 1675.48 236.004C1674.8 235.223 1674.46 234.203 1674.46 232.945C1674.46 231.625 1674.96 230.574 1675.95 229.793C1676.95 229.012 1678.26 228.621 1679.89 228.621C1681.59 228.621 1683.16 228.934 1684.59 229.559L1683.97 231.293C1682.55 230.699 1681.18 230.402 1679.84 230.402C1678.79 230.402 1677.96 230.629 1677.37 231.082C1676.78 231.535 1676.48 232.164 1676.48 232.969C1676.48 233.562 1676.59 234.051 1676.81 234.434C1677.03 234.809 1677.39 235.156 1677.91 235.477C1678.43 235.789 1679.23 236.137 1680.3 236.52C1682.1 237.16 1683.33 237.848 1684 238.582C1684.68 239.316 1685.02 240.27 1685.02 241.441ZM1698.08 246H1688.53V228.867H1698.08V230.637H1690.52V236.156H1697.62V237.914H1690.52V244.219H1698.08V246ZM1712.66 246L1710.52 240.551H1703.66L1701.55 246H1699.53L1706.3 228.797H1707.98L1714.72 246H1712.66ZM1709.9 238.758L1707.91 233.449C1707.65 232.777 1707.39 231.953 1707.11 230.977C1706.94 231.727 1706.7 232.551 1706.38 233.449L1704.36 238.758H1709.9ZM1719.07 238.875V246H1717.07V228.867H1721.77C1723.88 228.867 1725.43 229.27 1726.43 230.074C1727.43 230.879 1727.94 232.09 1727.94 233.707C1727.94 235.973 1726.79 237.504 1724.49 238.301L1729.14 246H1726.79L1722.64 238.875H1719.07ZM1719.07 237.164H1721.8C1723.2 237.164 1724.23 236.887 1724.89 236.332C1725.55 235.77 1725.88 234.93 1725.88 233.812C1725.88 232.68 1725.54 231.863 1724.87 231.363C1724.2 230.863 1723.13 230.613 1721.66 230.613H1719.07V237.164ZM1739.25 230.402C1737.36 230.402 1735.88 231.031 1734.78 232.289C1733.7 233.539 1733.15 235.254 1733.15 237.434C1733.15 239.676 1733.68 241.41 1734.72 242.637C1735.78 243.855 1737.28 244.465 1739.22 244.465C1740.42 244.465 1741.78 244.25 1743.31 243.82V245.566C1742.12 246.012 1740.66 246.234 1738.92 246.234C1736.39 246.234 1734.45 245.469 1733.07 243.938C1731.7 242.406 1731.02 240.23 1731.02 237.41C1731.02 235.645 1731.35 234.098 1732 232.77C1732.67 231.441 1733.62 230.418 1734.86 229.699C1736.11 228.98 1737.58 228.621 1739.27 228.621C1741.07 228.621 1742.64 228.949 1743.98 229.605L1743.14 231.316C1741.84 230.707 1740.54 230.402 1739.25 230.402ZM1760.06 246H1758.07V237.938H1749.04V246H1747.05V228.867H1749.04V236.156H1758.07V228.867H1760.06V246Z" fill="black"/>
<rect x="1605.5" y="62.5" width="235" height="75" fill="#EBEBEB" stroke="black"/>
<path d="M1656.74 107H1654.46L1645.1 92.6211H1645.01C1645.13 94.3086 1645.2 95.8555 1645.2 97.2617V107H1643.36V89.8672H1645.61L1654.95 104.188H1655.04C1655.02 103.977 1654.99 103.301 1654.93 102.16C1654.88 101.012 1654.86 100.191 1654.88 99.6992V89.8672H1656.74V107ZM1676.32 98.4102C1676.32 101.152 1675.62 103.309 1674.23 104.879C1672.85 106.449 1670.93 107.234 1668.46 107.234C1665.93 107.234 1663.98 106.465 1662.61 104.926C1661.24 103.379 1660.56 101.199 1660.56 98.3867C1660.56 95.5977 1661.25 93.4375 1662.62 91.9062C1664 90.3672 1665.95 89.5977 1668.48 89.5977C1670.94 89.5977 1672.86 90.3789 1674.25 91.9414C1675.63 93.5039 1676.32 95.6602 1676.32 98.4102ZM1662.67 98.4102C1662.67 100.73 1663.16 102.492 1664.14 103.695C1665.14 104.891 1666.57 105.488 1668.46 105.488C1670.36 105.488 1671.79 104.891 1672.76 103.695C1673.73 102.5 1674.21 100.738 1674.21 98.4102C1674.21 96.1055 1673.73 94.3594 1672.76 93.1719C1671.8 91.9766 1670.37 91.3789 1668.48 91.3789C1666.58 91.3789 1665.14 91.9805 1664.14 93.1836C1663.16 94.3789 1662.67 96.1211 1662.67 98.4102ZM1685.43 107H1683.43V91.6367H1678.01V89.8672H1690.85V91.6367H1685.43V107ZM1693.44 107V89.8672H1695.43V107H1693.44ZM1702.14 107H1700.14V89.8672H1709.7V91.6367H1702.14V97.9062H1709.24V99.6758H1702.14V107ZM1712.54 107V89.8672H1714.54V107H1712.54ZM1726.58 91.4023C1724.7 91.4023 1723.21 92.0312 1722.12 93.2891C1721.03 94.5391 1720.49 96.2539 1720.49 98.4336C1720.49 100.676 1721.01 102.41 1722.06 103.637C1723.11 104.855 1724.61 105.465 1726.56 105.465C1727.75 105.465 1729.12 105.25 1730.65 104.82V106.566C1729.46 107.012 1728 107.234 1726.25 107.234C1723.73 107.234 1721.78 106.469 1720.41 104.938C1719.04 103.406 1718.36 101.23 1718.36 98.4102C1718.36 96.6445 1718.68 95.0977 1719.34 93.7695C1720 92.4414 1720.96 91.418 1722.2 90.6992C1723.45 89.9805 1724.92 89.6211 1726.61 89.6211C1728.4 89.6211 1729.97 89.9492 1731.32 90.6055L1730.47 92.3164C1729.18 91.707 1727.88 91.4023 1726.58 91.4023ZM1745.16 107L1743.02 101.551H1736.16L1734.05 107H1732.03L1738.8 89.7969H1740.48L1747.22 107H1745.16ZM1742.4 99.7578L1740.41 94.4492C1740.15 93.7773 1739.89 92.9531 1739.61 91.9766C1739.44 92.7266 1739.2 93.5508 1738.88 94.4492L1736.86 99.7578H1742.4ZM1754.85 107H1752.86V91.6367H1747.43V89.8672H1760.27V91.6367H1754.85V107ZM1762.86 107V89.8672H1764.86V107H1762.86ZM1784.44 98.4102C1784.44 101.152 1783.74 103.309 1782.35 104.879C1780.97 106.449 1779.04 107.234 1776.57 107.234C1774.05 107.234 1772.1 106.465 1770.73 104.926C1769.36 103.379 1768.68 101.199 1768.68 98.3867C1768.68 95.5977 1769.36 93.4375 1770.74 91.9062C1772.11 90.3672 1774.07 89.5977 1776.6 89.5977C1779.06 89.5977 1780.98 90.3789 1782.36 91.9414C1783.75 93.5039 1784.44 95.6602 1784.44 98.4102ZM1770.79 98.4102C1770.79 100.73 1771.28 102.492 1772.26 103.695C1773.25 104.891 1774.69 105.488 1776.57 105.488C1778.47 105.488 1779.91 104.891 1780.88 103.695C1781.84 102.5 1782.33 100.738 1782.33 98.4102C1782.33 96.1055 1781.84 94.3594 1780.88 93.1719C1779.91 91.9766 1778.49 91.3789 1776.6 91.3789C1774.7 91.3789 1773.25 91.9805 1772.26 93.1836C1771.28 94.3789 1770.79 96.1211 1770.79 98.4102ZM1801.65 107H1799.38L1790.02 92.6211H1789.92C1790.05 94.3086 1790.11 95.8555 1790.11 97.2617V107H1788.27V89.8672H1790.52L1799.86 104.188H1799.95C1799.94 103.977 1799.9 103.301 1799.85 102.16C1799.79 101.012 1799.77 100.191 1799.79 99.6992V89.8672H1801.65V107Z" fill="black"/>
<rect x="741.5" y="43.5" width="235" height="75" fill="#EBEBEB" stroke="black"/>
<path d="M832.363 88H830.371V79.9375H821.348V88H819.355V70.8672H821.348V78.1562H830.371V70.8672H832.363V88ZM851.945 79.4102C851.945 82.1523 851.25 84.3086 849.859 85.8789C848.477 87.4492 846.551 88.2344 844.082 88.2344C841.559 88.2344 839.609 87.4648 838.234 85.9258C836.867 84.3789 836.184 82.1992 836.184 79.3867C836.184 76.5977 836.871 74.4375 838.246 72.9062C839.621 71.3672 841.574 70.5977 844.105 70.5977C846.566 70.5977 848.488 71.3789 849.871 72.9414C851.254 74.5039 851.945 76.6602 851.945 79.4102ZM838.293 79.4102C838.293 81.7305 838.785 83.4922 839.77 84.6953C840.762 85.8906 842.199 86.4883 844.082 86.4883C845.98 86.4883 847.414 85.8906 848.383 84.6953C849.352 83.5 849.836 81.7383 849.836 79.4102C849.836 77.1055 849.352 75.3594 848.383 74.1719C847.422 72.9766 845.996 72.3789 844.105 72.3789C842.207 72.3789 840.762 72.9805 839.77 74.1836C838.785 75.3789 838.293 77.1211 838.293 79.4102ZM863.359 88L857.547 72.8125H857.453C857.562 74.0156 857.617 75.4453 857.617 77.1016V88H855.777V70.8672H858.777L864.203 85H864.297L869.77 70.8672H872.746V88H870.754V76.9609C870.754 75.6953 870.809 74.3203 870.918 72.8359H870.824L864.965 88H863.359ZM887.008 88H877.457V70.8672H887.008V72.6367H879.449V78.1562H886.551V79.9141H879.449V86.2188H887.008V88Z" fill="black"/>
<rect x="419.5" y="456.5" width="235" height="75" fill="#EBEBEB" stroke="black"/>
<path d="M476.906 501H467.355V483.867H476.906V485.637H469.348V491.156H476.449V492.914H469.348V499.219H476.906V501ZM488.297 501L482.484 485.812H482.391C482.5 487.016 482.555 488.445 482.555 490.102V501H480.715V483.867H483.715L489.141 498H489.234L494.707 483.867H497.684V501H495.691V489.961C495.691 488.695 495.746 487.32 495.855 485.836H495.762L489.902 501H488.297ZM511.945 501H502.395V483.867H511.945V485.637H504.387V491.156H511.488V492.914H504.387V499.219H511.945V501ZM517.746 493.875V501H515.754V483.867H520.453C522.555 483.867 524.105 484.27 525.105 485.074C526.113 485.879 526.617 487.09 526.617 488.707C526.617 490.973 525.469 492.504 523.172 493.301L527.824 501H525.469L521.32 493.875H517.746ZM517.746 492.164H520.477C521.883 492.164 522.914 491.887 523.57 491.332C524.227 490.77 524.555 489.93 524.555 488.812C524.555 487.68 524.219 486.863 523.547 486.363C522.883 485.863 521.812 485.613 520.336 485.613H517.746V492.164ZM538.125 492.023H543.949V500.355C543.043 500.645 542.121 500.863 541.184 501.012C540.246 501.16 539.16 501.234 537.926 501.234C535.332 501.234 533.312 500.465 531.867 498.926C530.422 497.379 529.699 495.215 529.699 492.434C529.699 490.652 530.055 489.094 530.766 487.758C531.484 486.414 532.516 485.391 533.859 484.688C535.203 483.977 536.777 483.621 538.582 483.621C540.41 483.621 542.113 483.957 543.691 484.629L542.918 486.387C541.371 485.73 539.883 485.402 538.453 485.402C536.367 485.402 534.738 486.023 533.566 487.266C532.395 488.508 531.809 490.23 531.809 492.434C531.809 494.746 532.371 496.5 533.496 497.695C534.629 498.891 536.289 499.488 538.477 499.488C539.664 499.488 540.824 499.352 541.957 499.078V493.805H538.125V492.023ZM557.625 501H548.074V483.867H557.625V485.637H550.066V491.156H557.168V492.914H550.066V499.219H557.625V501ZM574.816 501H572.543L563.18 486.621H563.086C563.211 488.309 563.273 489.855 563.273 491.262V501H561.434V483.867H563.684L573.023 498.188H573.117C573.102 497.977 573.066 497.301 573.012 496.16C572.957 495.012 572.938 494.191 572.953 493.699V483.867H574.816V501ZM586.863 485.402C584.98 485.402 583.492 486.031 582.398 487.289C581.312 488.539 580.77 490.254 580.77 492.434C580.77 494.676 581.293 496.41 582.34 497.637C583.395 498.855 584.895 499.465 586.84 499.465C588.035 499.465 589.398 499.25 590.93 498.82V500.566C589.742 501.012 588.277 501.234 586.535 501.234C584.012 501.234 582.062 500.469 580.688 498.938C579.32 497.406 578.637 495.23 578.637 492.41C578.637 490.645 578.965 489.098 579.621 487.77C580.285 486.441 581.238 485.418 582.48 484.699C583.73 483.98 585.199 483.621 586.887 483.621C588.684 483.621 590.254 483.949 591.598 484.605L590.754 486.316C589.457 485.707 588.16 485.402 586.863 485.402ZM599.027 492.434L603.598 483.867H605.754L600.035 494.355V501H598.02V494.449L592.312 483.867H594.492L599.027 492.434Z" fill="black"/>
<rect x="419.5" y="318.5" width="235" height="75" fill="#EBEBEB" stroke="black"/>
<path d="M519.363 363H517.371V354.938H508.348V363H506.355V345.867H508.348V353.156H517.371V345.867H519.363V363ZM533.625 363H524.074V345.867H533.625V347.637H526.066V353.156H533.168V354.914H526.066V361.219H533.625V363ZM537.434 363V345.867H539.426V361.195H546.984V363H537.434ZM560.766 350.859C560.766 352.594 560.172 353.93 558.984 354.867C557.805 355.797 556.113 356.262 553.91 356.262H551.895V363H549.902V345.867H554.344C558.625 345.867 560.766 347.531 560.766 350.859ZM551.895 354.551H553.688C555.453 354.551 556.73 354.266 557.52 353.695C558.309 353.125 558.703 352.211 558.703 350.953C558.703 349.82 558.332 348.977 557.59 348.422C556.848 347.867 555.691 347.59 554.121 347.59H551.895V354.551Z" fill="black"/>
<rect x="417.5" y="180.5" width="235" height="75" fill="#EBEBEB" stroke="black"/>
<path d="M485.348 217.875V225H483.355V207.867H488.055C490.156 207.867 491.707 208.27 492.707 209.074C493.715 209.879 494.219 211.09 494.219 212.707C494.219 214.973 493.07 216.504 490.773 217.301L495.426 225H493.07L488.922 217.875H485.348ZM485.348 216.164H488.078C489.484 216.164 490.516 215.887 491.172 215.332C491.828 214.77 492.156 213.93 492.156 212.812C492.156 211.68 491.82 210.863 491.148 210.363C490.484 209.863 489.414 209.613 487.938 209.613H485.348V216.164ZM507.742 225H498.191V207.867H507.742V209.637H500.184V215.156H507.285V216.914H500.184V223.219H507.742V225ZM519.086 216.023H524.91V224.355C524.004 224.645 523.082 224.863 522.145 225.012C521.207 225.16 520.121 225.234 518.887 225.234C516.293 225.234 514.273 224.465 512.828 222.926C511.383 221.379 510.66 219.215 510.66 216.434C510.66 214.652 511.016 213.094 511.727 211.758C512.445 210.414 513.477 209.391 514.82 208.688C516.164 207.977 517.738 207.621 519.543 207.621C521.371 207.621 523.074 207.957 524.652 208.629L523.879 210.387C522.332 209.73 520.844 209.402 519.414 209.402C517.328 209.402 515.699 210.023 514.527 211.266C513.355 212.508 512.77 214.23 512.77 216.434C512.77 218.746 513.332 220.5 514.457 221.695C515.59 222.891 517.25 223.488 519.438 223.488C520.625 223.488 521.785 223.352 522.918 223.078V217.805H519.086V216.023ZM529.035 225V207.867H531.027V225H529.035ZM545.406 220.441C545.406 221.949 544.859 223.125 543.766 223.969C542.672 224.812 541.188 225.234 539.312 225.234C537.281 225.234 535.719 224.973 534.625 224.449V222.527C535.328 222.824 536.094 223.059 536.922 223.23C537.75 223.402 538.57 223.488 539.383 223.488C540.711 223.488 541.711 223.238 542.383 222.738C543.055 222.23 543.391 221.527 543.391 220.629C543.391 220.035 543.27 219.551 543.027 219.176C542.793 218.793 542.395 218.441 541.832 218.121C541.277 217.801 540.43 217.438 539.289 217.031C537.695 216.461 536.555 215.785 535.867 215.004C535.188 214.223 534.848 213.203 534.848 211.945C534.848 210.625 535.344 209.574 536.336 208.793C537.328 208.012 538.641 207.621 540.273 207.621C541.977 207.621 543.543 207.934 544.973 208.559L544.352 210.293C542.938 209.699 541.562 209.402 540.227 209.402C539.172 209.402 538.348 209.629 537.754 210.082C537.16 210.535 536.863 211.164 536.863 211.969C536.863 212.562 536.973 213.051 537.191 213.434C537.41 213.809 537.777 214.156 538.293 214.477C538.816 214.789 539.613 215.137 540.684 215.52C542.48 216.16 543.715 216.848 544.387 217.582C545.066 218.316 545.406 219.27 545.406 220.441ZM554.184 225H552.191V209.637H546.766V207.867H559.609V209.637H554.184V225ZM571.75 225H562.199V207.867H571.75V209.637H564.191V215.156H571.293V216.914H564.191V223.219H571.75V225ZM577.551 217.875V225H575.559V207.867H580.258C582.359 207.867 583.91 208.27 584.91 209.074C585.918 209.879 586.422 211.09 586.422 212.707C586.422 214.973 585.273 216.504 582.977 217.301L587.629 225H585.273L581.125 217.875H577.551ZM577.551 216.164H580.281C581.688 216.164 582.719 215.887 583.375 215.332C584.031 214.77 584.359 213.93 584.359 212.812C584.359 211.68 584.023 210.863 583.352 210.363C582.688 209.863 581.617 209.613 580.141 209.613H577.551V216.164Z" fill="black"/>
<rect x="415.5" y="42.5" width="235" height="75" fill="#EBEBEB" stroke="black"/>
<path d="M495.355 87V69.8672H497.348V85.1953H504.906V87H495.355ZM522.695 78.4102C522.695 81.1523 522 83.3086 520.609 84.8789C519.227 86.4492 517.301 87.2344 514.832 87.2344C512.309 87.2344 510.359 86.4648 508.984 84.9258C507.617 83.3789 506.934 81.1992 506.934 78.3867C506.934 75.5977 507.621 73.4375 508.996 71.9062C510.371 70.3672 512.324 69.5977 514.855 69.5977C517.316 69.5977 519.238 70.3789 520.621 71.9414C522.004 73.5039 522.695 75.6602 522.695 78.4102ZM509.043 78.4102C509.043 80.7305 509.535 82.4922 510.52 83.6953C511.512 84.8906 512.949 85.4883 514.832 85.4883C516.73 85.4883 518.164 84.8906 519.133 83.6953C520.102 82.5 520.586 80.7383 520.586 78.4102C520.586 76.1055 520.102 74.3594 519.133 73.1719C518.172 71.9766 516.746 71.3789 514.855 71.3789C512.957 71.3789 511.512 71.9805 510.52 73.1836C509.535 74.3789 509.043 76.1211 509.043 78.4102ZM534.062 78.0234H539.887V86.3555C538.98 86.6445 538.059 86.8633 537.121 87.0117C536.184 87.1602 535.098 87.2344 533.863 87.2344C531.27 87.2344 529.25 86.4648 527.805 84.9258C526.359 83.3789 525.637 81.2148 525.637 78.4336C525.637 76.6523 525.992 75.0938 526.703 73.7578C527.422 72.4141 528.453 71.3906 529.797 70.6875C531.141 69.9766 532.715 69.6211 534.52 69.6211C536.348 69.6211 538.051 69.957 539.629 70.6289L538.855 72.3867C537.309 71.7305 535.82 71.4023 534.391 71.4023C532.305 71.4023 530.676 72.0234 529.504 73.2656C528.332 74.5078 527.746 76.2305 527.746 78.4336C527.746 80.7461 528.309 82.5 529.434 83.6953C530.566 84.8906 532.227 85.4883 534.414 85.4883C535.602 85.4883 536.762 85.3516 537.895 85.0781V79.8047H534.062V78.0234ZM544.012 87V69.8672H546.004V87H544.012ZM564.098 87H561.824L552.461 72.6211H552.367C552.492 74.3086 552.555 75.8555 552.555 77.2617V87H550.715V69.8672H552.965L562.305 84.1875H562.398C562.383 83.9766 562.348 83.3008 562.293 82.1602C562.238 81.0117 562.219 80.1914 562.234 79.6992V69.8672H564.098V87Z" fill="black"/>
<rect x="2150.5" y="612.5" width="235" height="75" fill="#EBEBEB" stroke="black"/>
<path d="M2233.63 657H2231.64V641.637H2226.21V639.867H2239.05V641.637H2233.63V657ZM2246 648.434L2250.57 639.867H2252.73L2247.01 650.355V657H2245V650.449L2239.29 639.867H2241.47L2246 648.434ZM2265.96 644.859C2265.96 646.594 2265.37 647.93 2264.18 648.867C2263 649.797 2261.31 650.262 2259.11 650.262H2257.09V657H2255.1V639.867H2259.54C2263.82 639.867 2265.96 641.531 2265.96 644.859ZM2257.09 648.551H2258.88C2260.65 648.551 2261.93 648.266 2262.71 647.695C2263.5 647.125 2263.9 646.211 2263.9 644.953C2263.9 643.82 2263.53 642.977 2262.79 642.422C2262.04 641.867 2260.89 641.59 2259.32 641.59H2257.09V648.551ZM2279.11 657H2269.56V639.867H2279.11V641.637H2271.55V647.156H2278.65V648.914H2271.55V655.219H2279.11V657ZM2281.55 651.457V649.676H2287.3V651.457H2281.55ZM2300.73 657H2289.47V655.324L2293.98 650.789C2295.36 649.398 2296.26 648.406 2296.7 647.812C2297.14 647.219 2297.46 646.641 2297.68 646.078C2297.9 645.516 2298.01 644.91 2298.01 644.262C2298.01 643.348 2297.73 642.625 2297.18 642.094C2296.62 641.555 2295.86 641.285 2294.87 641.285C2294.16 641.285 2293.48 641.402 2292.84 641.637C2292.21 641.871 2291.5 642.297 2290.72 642.914L2289.69 641.59C2291.27 640.277 2292.99 639.621 2294.85 639.621C2296.46 639.621 2297.72 640.035 2298.63 640.863C2299.55 641.684 2300 642.789 2300 644.18C2300 645.266 2299.7 646.34 2299.09 647.402C2298.48 648.465 2297.34 649.809 2295.67 651.434L2291.92 655.102V655.195H2300.73V657Z" fill="black"/>
<path d="M349 256.5L414 79" stroke="black"/>
<path d="M354 259L418.5 213.5" stroke="black"/>
<path d="M354 261.5L421 353" stroke="black"/>
<path d="M354 261.5L418.5 494.5" stroke="black"/>
<path d="M654 355H764.5" stroke="black"/>
<path d="M541 533L219.5 629" stroke="black"/>
<path d="M543.5 535.5V624" stroke="black"/>
<path d="M543.5 537.5L855.5 626.5" stroke="black"/>
<path d="M654 76.5H743" stroke="black"/>
<path d="M980.5 79H1602.5" stroke="black"/>
<path d="M983 79L1605 240" stroke="black"/>
<path d="M1710.5 278.5L1410.5 381.5" stroke="black"/>
<path d="M1713 278.5L2087.5 377" stroke="black"/>
<path d="M1405.5 453.5L1240 624" stroke="black"/>
<path d="M1406 454L1561 627" stroke="black"/>
<path d="M2095 451L1965 609.5" stroke="black"/>
<path d="M2095 451L2260.5 609.5" stroke="black"/>
<path d="M1247 706L1422.5 914.5" stroke="black"/>
<path d="M1571.5 706L1427.5 914.5" stroke="black"/>
<defs>
<linearGradient id="paint0_linear" x1="71.6327" y1="51.8161" x2="1624.34" y2="1334.8" gradientUnits="userSpaceOnUse">
<stop stop-color="#ABF9EB"/>
<stop offset="0.466667" stop-color="#E761D9" stop-opacity="0.533333"/>
<stop offset="1" stop-color="#0D81C1" stop-opacity="0.76"/>
</linearGradient>
</defs>
</svg>
